<svg width="46" height="46" viewBox="0 0 46 46" fill="none" xmlns="http://www.w3.org/2000/svg">
<path d="M28.373 20.696C26.5773 17.434 24.1692 14.5482 21.2807 12.1971C19.1671 10.5984 17.2842 10.0019 16.2429 10.6032C15.2016 11.2039 14.7774 13.1335 15.1055 15.7632C15.6972 19.4398 16.9925 22.9674 18.9207 26.1539C20.7164 29.4165 23.1245 32.3023 26.013 34.6527C28.1252 36.2528 30.0102 36.8479 31.0508 36.2473C32.0915 35.6467 32.5164 33.7171 32.1882 31.0873C31.5958 27.41 30.3005 23.8817 28.373 20.696ZM29.5612 20.0095C34.0293 27.7478 35.0026 35.5505 31.7352 37.4369C28.4677 39.3232 22.1985 34.5785 17.7318 26.8396C13.2638 19.1021 12.289 11.3 15.5565 9.41363C18.8239 7.52729 25.0939 12.2713 29.5612 20.0095Z" fill="#00F2FE"/>
<path d="M23.1169 18.0539C19.4095 17.9791 15.7205 18.6079 12.2465 19.9073C9.82059 20.9122 8.37288 22.2048 8.37288 23.3635C8.37288 24.5222 9.82059 25.8148 12.2465 26.8204C15.7205 28.1206 19.4095 28.7493 23.1169 28.6738C26.8251 28.7487 30.514 28.1199 33.9881 26.8204C36.4126 25.8148 37.8617 24.5222 37.8617 23.3635C37.8617 22.2048 36.4133 20.9129 33.9881 19.908C30.5133 18.6079 26.8251 17.9791 23.1169 18.0539ZM23.1169 16.681C32.0187 16.681 39.2339 19.6725 39.2339 23.3628C39.2339 27.0531 32.018 30.0453 23.1169 30.0453C14.2159 30.046 7 27.0545 7 23.3635C7 19.6725 14.2159 16.681 23.1169 16.681Z" fill="#00F2FE"/>
<path d="M28.373 26.154C30.3005 22.9676 31.5952 19.4399 32.1869 15.7627C32.5157 13.1329 32.0901 11.2033 31.0494 10.6027C30.0081 10.0014 28.1252 10.5979 26.0117 12.1966C23.1238 14.5477 20.7158 17.4335 18.9207 20.6961C16.9932 23.8833 15.6986 27.4109 15.1069 31.0882C14.7781 33.7172 15.2043 35.6475 16.2443 36.2481C17.2842 36.8488 19.1685 36.2529 21.2821 34.6535C24.1699 32.3025 26.578 29.4167 28.373 26.154ZM29.5612 26.8405C25.0939 34.5787 18.8232 39.3234 15.5565 37.4371C12.2897 35.5507 13.2638 27.7493 17.7318 20.0104C22.1992 12.2728 28.4684 7.52746 31.7352 9.4138C35.002 11.3001 34.0293 19.1029 29.5612 26.8405Z" fill="#00F2FE"/>
<path d="M28.9586 17.9378C30.1344 17.493 31.449 18.086 31.8945 19.2633C32.2377 20.1749 31.9631 21.2045 31.2121 21.8244L31.1792 21.8519C30.2093 22.6536 30.0733 24.0883 30.8765 25.0582C30.9678 25.1694 31.0694 25.271 31.1792 25.3623L31.2389 25.4104C32.2089 26.2114 32.3468 27.6468 31.5444 28.6167C30.928 29.3643 29.9017 29.6382 28.9929 29.2997L28.9222 29.2737C27.7429 28.8336 26.4318 29.4329 25.9925 30.6108C25.9417 30.7468 25.9046 30.8847 25.8806 31.0268L25.8737 31.0701C25.6643 32.3112 24.4905 33.1459 23.2508 32.9392C22.2891 32.7772 21.5388 32.0222 21.3796 31.0611C21.1757 29.8201 20.0046 28.9812 18.7635 29.1858C18.616 29.2091 18.4704 29.2483 18.3311 29.3018C17.1545 29.7452 15.84 29.1528 15.3966 27.9756C15.0526 27.064 15.3252 26.0337 16.0768 25.4145L16.1105 25.3863C17.0797 24.5859 17.217 23.1492 16.4139 22.1807C16.3219 22.0701 16.221 21.9672 16.1105 21.8766L16.0507 21.8285C15.0801 21.0268 14.9442 19.5914 15.7453 18.6228C16.3624 17.8753 17.3879 17.6 18.2968 17.9391L18.3682 17.9659C19.5468 18.4059 20.8586 17.806 21.2972 16.6274C21.348 16.4928 21.3844 16.3535 21.4084 16.2121L21.4153 16.1688C21.6294 14.9291 22.806 14.0958 24.0443 14.3086C25.0012 14.4712 25.7481 15.2222 25.9073 16.1764C26.1126 17.4168 27.283 18.2577 28.5234 18.0531C28.6723 18.0284 28.8172 17.9899 28.9565 17.9371L28.9586 17.9378Z" fill="#00F2FE"/>
<path d="M27.6934 22.3942C28.1149 22.6983 28.2117 23.2873 27.9069 23.7101C27.8472 23.7905 27.7751 23.8625 27.6934 23.9223L22.495 27.6764C22.0736 27.9791 21.4846 27.8858 21.1791 27.4622C21.0631 27.303 21.002 27.1087 21.002 26.9103V19.4034C21.002 18.8824 21.4242 18.4609 21.9445 18.4609C22.1422 18.4609 22.3351 18.5234 22.4964 18.6394L27.6934 22.3942Z" fill="white"/>
</svg>
